<svg width="70" height="70" viewBox="0 0 70 70" fill="none" xmlns="http://www.w3.org/2000/svg">
<path d="M42.2649 16.119H27.9256C21.3271 16.119 15.9762 21.47 15.9762 28.0684V42.4077C15.9762 49.0062 21.3271 54.3571 27.9256 54.3571H42.2649C48.8634 54.3571 54.2143 49.0062 54.2143 42.4077V28.0684C54.2143 21.47 48.8634 16.119 42.2649 16.119ZM50.6295 42.4077C50.6295 47.0201 46.8773 50.7723 42.2649 50.7723H27.9256C23.3131 50.7723 19.561 47.0201 19.561 42.4077V28.0684C19.561 23.456 23.3131 19.7038 27.9256 19.7038H42.2649C46.8773 19.7038 50.6295 23.456 50.6295 28.0684V42.4077Z" fill="black"/>
<path d="M35.0952 25.6786C29.816 25.6786 25.5357 29.9589 25.5357 35.2381C25.5357 40.5174 29.816 44.7976 35.0952 44.7976C40.3745 44.7976 44.6548 40.5174 44.6548 35.2381C44.6548 29.9589 40.3745 25.6786 35.0952 25.6786ZM35.0952 41.2128C31.802 41.2128 29.1205 38.5315 29.1205 35.2381C29.1205 31.9425 31.802 29.2634 35.0952 29.2634C38.3886 29.2634 41.0699 31.9425 41.0699 35.2381C41.0699 38.5315 38.3886 41.2128 35.0952 41.2128Z" fill="black"/>
<path d="M45.3718 26.2355C46.0753 26.2355 46.6456 25.6652 46.6456 24.9617C46.6456 24.2582 46.0753 23.6879 45.3718 23.6879C44.6682 23.6879 44.0979 24.2582 44.0979 24.9617C44.0979 25.6652 44.6682 26.2355 45.3718 26.2355Z" fill="black"/>
<circle cx="35.0952" cy="35.2381" r="33.7619" stroke="black" stroke-width="2"/>
</svg>
