<svg width="70" height="70" viewBox="0 0 70 70" fill="none" xmlns="http://www.w3.org/2000/svg">
<path d="M0 0.877197V69.1206H70V0.877197H0ZM2.91594 3.79532H67.0819V66.2069H2.91594V3.79532ZM19.39 48.4903C19.0487 48.4903 18.9591 48.3416 18.9591 48.0594V16.7256C18.9591 16.4741 19.0487 16.3406 19.3003 16.3406H23.9137C24.1653 16.3406 24.2113 16.4434 24.2113 16.6928V43.6931H36.2425C36.4809 43.6931 36.5487 43.7981 36.505 44.0366L35.7766 48.1731C35.7306 48.4116 35.5819 48.5144 35.3413 48.5144H19.39V48.4903ZM40.9828 29.5991C40.9828 29.2469 40.9828 28.3916 40.8341 26.7531C40.8341 26.5147 40.8931 26.4556 41.0856 26.3659C42.8619 25.6484 47.0794 24.3513 51.7956 24.3513C52.0341 24.3513 52.1259 24.395 52.1259 24.6466V28.8728C52.1259 29.1244 52.0363 29.1703 51.7847 29.1703C49.9625 29.0806 47.2259 29.3191 46.2131 29.75V48.1513C46.2131 48.3897 46.1191 48.4816 45.8806 48.4816H41.3022C41.0638 48.4816 40.9719 48.3919 40.9719 48.1513V29.6013L40.9828 29.5991Z" fill="black"/>
</svg>
