<svg width="70" height="70" viewBox="0 0 70 70" fill="none" xmlns="http://www.w3.org/2000/svg">
<path d="M0 0.999998V69.2456L70 69.2456V1L0 0.999998ZM2.91594 3.91594H67.0819V66.3274H2.91594V3.91594ZM16.9181 16.9841C16.9181 16.7894 17.3294 16.6428 17.5678 16.6428C20.0733 16.5368 22.5808 16.4872 25.0884 16.4941C33.1778 16.4941 36.3213 20.9259 36.3213 26.6003C36.3213 34.0181 30.9444 37.1965 24.3578 37.1965C23.2422 37.1965 22.8659 37.1396 22.0916 37.1396V48.3506C22.0916 48.589 21.9997 48.6918 21.7612 48.6918H17.2484C17.01 48.6918 16.9181 48.5999 16.9181 48.3615V16.9841ZM22.0916 32.4803C22.7631 32.5262 23.2991 32.5262 24.4606 32.5262C27.8666 32.5262 31.08 31.3187 31.08 26.7053C31.08 23.0018 28.7787 21.1228 24.8828 21.1228C23.7322 21.1228 22.6275 21.1687 22.0916 21.2147V32.4803ZM47.2019 29.0043C44.8897 29.0043 44.1153 30.1659 44.1153 31.124C44.1153 32.1828 44.6403 32.9024 47.7269 34.4971C52.2966 36.7196 53.7425 38.8262 53.7425 41.9587C53.7425 46.6181 50.1769 49.1249 45.3688 49.1249C42.8159 49.1249 40.6416 48.589 39.3881 47.8715C39.2066 47.7796 39.1606 47.633 39.1606 47.3924V43.1093C39.1606 42.8249 39.2984 42.7221 39.4909 42.8709C41.2368 44.006 43.2754 44.608 45.3578 44.6034C47.67 44.6034 48.6281 43.6452 48.6281 42.3371C48.6281 41.2784 47.9566 40.3662 45.0275 38.8284C40.88 36.8465 39.1475 34.8296 39.1475 31.4565C39.1475 27.6962 42.0875 24.5747 47.18 24.5747C49.6869 24.5747 51.4522 24.9618 52.4213 25.384C52.6597 25.5328 52.7056 25.7712 52.7056 25.9659V29.9646C52.7056 30.2031 52.5569 30.3518 52.2725 30.249C50.9731 29.4856 49.0591 28.9956 47.1909 28.9956L47.2019 29.0043Z" fill="black"/>
</svg>
