<svg width="71" height="70" viewBox="0 0 71 70" fill="none" xmlns="http://www.w3.org/2000/svg">
<path d="M46.6061 22.5952H24.2511C19.8651 22.5952 16.3095 26.0211 16.3095 30.2471V41.0147C16.3095 45.2407 19.8651 48.6666 24.2511 48.6666H46.6061C50.992 48.6666 54.5476 45.2407 54.5476 41.0147V30.2471C54.5476 26.0211 50.992 22.5952 46.6061 22.5952ZM41.2352 36.1548L30.7791 40.9599C30.5004 41.0879 30.1786 40.8921 30.1786 40.5948V30.6843C30.1786 30.3827 30.5089 30.1872 30.7881 30.3236L41.2442 35.429C41.5552 35.5807 41.5498 36.0103 41.2352 36.1548Z" fill="black"/>
<circle cx="35.4286" cy="34.7619" r="33.7619" stroke="black" stroke-width="2"/>
</svg>
