<svg width="40" height="40" viewBox="0 0 40 40" fill="none" xmlns="http://www.w3.org/2000/svg">
<path d="M26.4309 13H13.5691C11.0457 13 9 14.9711 9 17.4025V23.5975C9 26.0289 11.0457 28 13.5691 28H26.4309C28.9543 28 31 26.0289 31 23.5975V17.4025C31 14.9711 28.9543 13 26.4309 13ZM23.3408 20.8014L17.325 23.566C17.1646 23.6396 16.9795 23.527 16.9795 23.3559V17.654C16.9795 17.4805 17.1695 17.368 17.3302 17.4464L23.346 20.3838C23.5249 20.4711 23.5218 20.7183 23.3408 20.8014Z" fill="white"/>
<circle cx="20" cy="20" r="19" stroke="white" stroke-width="2"/>
</svg>
