<svg width="68" height="68" viewBox="0 0 68 68" fill="none" xmlns="http://www.w3.org/2000/svg">
<g clip-path="url(#clip0)">
<path d="M17.8095 15.1111H24.8254L33.4603 45.3333L41.5556 15.1111L48.5714 15.1111L37.0306 52.8889H29.475L17.8095 15.1111ZM6.80836 2.29605e-05H59.6972C61.7011 2.29605e-05 65.6337 6.04751e-05 67.2528 2.29605e-05C67.2528 2.15867 67.2528 5.55172 67.2528 7.55558V60.4445C67.2528 62.4483 67.2528 59.9048 67.2528 68C58.8254 68 61.7011 68 59.6972 68H6.80836C4.8045 68 2.15873 68 2.02656e-06 68C0 65.5 0 62.5039 0 60.5V34.0452V7.55799C0 5.55413 5.62933e-06 1.61902 2.02656e-06 2.29605e-05C1.61905 -2.87006e-05 4.8045 2.29605e-05 6.80836 2.29605e-05ZM3.2381 3.2381V64.7619H63.6825V3.2381H3.2381Z" fill="black"/>
</g>
<defs>
<clipPath id="clip0">
<rect width="68" height="68" fill="white"/>
</clipPath>
</defs>
</svg>
