<svg width="40" height="40" viewBox="0 0 40 40" fill="none" xmlns="http://www.w3.org/2000/svg">
<path d="M33.8947 26.5466C33.8607 26.478 33.8291 26.4211 33.7997 26.3755C33.3131 25.554 32.3833 24.5456 31.0109 23.3502L30.9819 23.3228L30.9674 23.3094L30.9527 23.2956H30.938C30.3151 22.7389 29.9206 22.3646 29.7554 22.173C29.4532 21.8079 29.3855 21.4384 29.5507 21.064C29.6674 20.7812 30.1057 20.1838 30.8648 19.271C31.264 18.7873 31.5802 18.3997 31.8137 18.1076C33.4978 16.0086 34.228 14.6673 34.004 14.0832L33.917 13.9467C33.8585 13.8645 33.7077 13.7893 33.4646 13.7208C33.221 13.6524 32.9096 13.641 32.5299 13.6866L28.3249 13.7139C28.2568 13.6912 28.1595 13.6934 28.0328 13.7208C27.9062 13.7482 27.8429 13.762 27.8429 13.762L27.7697 13.7962L27.7116 13.8374C27.6629 13.8647 27.6094 13.9126 27.5509 13.981C27.4928 14.0492 27.4441 14.1293 27.4053 14.2205C26.9475 15.3247 26.4269 16.3514 25.8428 17.3004C25.4826 17.8663 25.1518 18.3567 24.8497 18.7719C24.548 19.187 24.2949 19.4929 24.0907 19.6889C23.8861 19.8852 23.7015 20.0424 23.5357 20.1611C23.3702 20.2799 23.2438 20.3301 23.1563 20.3118C23.0686 20.2934 22.986 20.2752 22.9078 20.257C22.7716 20.1748 22.6621 20.063 22.5795 19.9216C22.4965 19.7802 22.4407 19.6021 22.4115 19.3877C22.3824 19.1731 22.3653 18.9885 22.3603 18.8333C22.3558 18.6783 22.3579 18.4591 22.3678 18.1762C22.3779 17.8932 22.3824 17.7017 22.3824 17.6013C22.3824 17.2545 22.3896 16.8781 22.4041 16.472C22.4188 16.0659 22.4308 15.7441 22.4407 15.5071C22.4507 15.2698 22.4553 15.0188 22.4553 14.7541C22.4553 14.4895 22.4381 14.2819 22.4041 14.1313C22.3706 13.9808 22.3191 13.8348 22.2512 13.6932C22.1829 13.5518 22.083 13.4424 21.9519 13.3647C21.8205 13.2871 21.6572 13.2256 21.4628 13.1798C20.9468 13.0704 20.2898 13.0112 19.4915 13.0019C17.681 12.9837 16.5177 13.0933 16.0018 13.3306C15.7974 13.4309 15.6124 13.5678 15.4471 13.7411C15.2718 13.9419 15.2473 14.0515 15.3739 14.0696C15.958 14.1516 16.3715 14.3478 16.6149 14.6581L16.7026 14.8225C16.7708 14.9411 16.8389 15.1511 16.9071 15.4522C16.9752 15.7533 17.0191 16.0863 17.0384 16.4512C17.087 17.1175 17.087 17.6878 17.0384 18.1623C16.9897 18.6369 16.9437 19.0064 16.8998 19.2711C16.8558 19.5357 16.7902 19.7502 16.7026 19.9144C16.6149 20.0787 16.5565 20.1791 16.5273 20.2155C16.4981 20.2519 16.4738 20.2749 16.4544 20.2839C16.3279 20.3294 16.1963 20.3525 16.0601 20.3525C15.9237 20.3525 15.7583 20.2886 15.5637 20.1607C15.3691 20.0329 15.1672 19.8574 14.9578 19.6337C14.7485 19.4101 14.5125 19.0975 14.2495 18.6961C13.9868 18.2946 13.7143 17.8201 13.432 17.2725L13.1984 16.8755C13.0524 16.62 12.8529 16.2481 12.5999 15.7599C12.3466 15.2716 12.1228 14.7993 11.9282 14.343C11.8504 14.1514 11.7335 14.0055 11.5778 13.9051L11.5047 13.8639C11.4561 13.8275 11.3781 13.7888 11.2712 13.7475C11.164 13.7063 11.0522 13.6768 10.9353 13.6586L6.93465 13.6859C6.52583 13.6859 6.24844 13.7727 6.10238 13.9461L6.04393 14.0281C6.01473 14.0738 6 14.1468 6 14.2472C6 14.3476 6.0292 14.4709 6.08766 14.6168C6.67168 15.9036 7.3068 17.1446 7.993 18.3401C8.67921 19.5355 9.27551 20.4985 9.78154 21.2281C10.2877 21.9582 10.8036 22.6473 11.3293 23.2951C11.8549 23.943 12.2029 24.3583 12.3731 24.5407C12.5436 24.7235 12.6775 24.8601 12.7748 24.9513L13.1399 25.2798C13.3735 25.4989 13.7166 25.7612 14.1692 26.0669C14.622 26.3727 15.1232 26.6738 15.6731 26.9706C16.2232 27.267 16.8631 27.5088 17.5933 27.6958C18.3233 27.883 19.0338 27.9582 19.725 27.9219H21.4042C21.7447 27.8944 22.0027 27.794 22.1781 27.6207L22.2362 27.5521C22.2752 27.4976 22.3118 27.413 22.3456 27.2991C22.3797 27.1851 22.3967 27.0594 22.3967 26.9227C22.3867 26.5304 22.4186 26.1768 22.4914 25.862C22.5642 25.5473 22.6471 25.31 22.7399 25.1502C22.8326 24.9906 22.9373 24.8558 23.0537 24.7466C23.1704 24.6372 23.2536 24.5709 23.3024 24.548C23.3508 24.5251 23.3895 24.5095 23.4187 24.5001C23.6524 24.4272 23.9273 24.4978 24.244 24.7125C24.5604 24.9269 24.8571 25.1917 25.1347 25.5064C25.4122 25.8214 25.7455 26.1748 26.1348 26.5672C26.5243 26.9596 26.8649 27.2514 27.1568 27.4433L27.4487 27.6076C27.6437 27.7172 27.8968 27.8176 28.2083 27.9088C28.5193 28 28.7918 28.0228 29.0258 27.9772L32.7635 27.9226C33.1332 27.9226 33.4208 27.8652 33.6249 27.7513C33.8293 27.6372 33.9508 27.5116 33.99 27.3749C34.029 27.2381 34.0311 27.0828 33.9974 26.9092C33.9628 26.7361 33.9287 26.6151 33.8947 26.5466Z" fill="white"/>
<circle cx="20" cy="20" r="19" stroke="white" stroke-width="2"/>
</svg>
