<svg width="70" height="70" viewBox="0 0 70 70" fill="none" xmlns="http://www.w3.org/2000/svg">
<path d="M58.9122 46.1405C58.8531 46.0213 58.7982 45.9224 58.7471 45.8431C57.9014 44.4153 56.2853 42.6626 53.8999 40.5848L53.8495 40.5372L53.8243 40.5139L53.7988 40.4899H53.7732C52.6905 39.5224 52.0049 38.8718 51.7177 38.5387C51.1925 37.9042 51.0748 37.262 51.3619 36.6112C51.5648 36.1196 52.3266 35.0813 53.646 33.4949C54.3398 32.6542 54.8894 31.9803 55.2953 31.4727C58.2224 27.8244 59.4915 25.4931 59.1022 24.4779L58.951 24.2407C58.8493 24.0978 58.5872 23.9672 58.1647 23.848C57.7413 23.7291 57.2 23.7094 56.5401 23.7887L49.2314 23.836C49.113 23.7967 48.9439 23.8003 48.7237 23.848C48.5037 23.8957 48.3936 23.9196 48.3936 23.9196L48.2664 23.9792L48.1654 24.0507C48.0808 24.0981 47.9878 24.1813 47.8861 24.3003C47.7851 24.4189 47.7005 24.5581 47.633 24.7166C46.8373 26.6359 45.9325 28.4202 44.9173 30.0697C44.2912 31.0533 43.7162 31.9057 43.1912 32.6274C42.6668 33.3489 42.2269 33.8805 41.872 34.2212C41.5163 34.5623 41.1955 34.8355 40.9073 35.042C40.6197 35.2484 40.4 35.3357 40.2479 35.3038C40.0954 35.2719 39.9519 35.2402 39.816 35.2085C39.5792 35.0657 39.3889 34.8715 39.2453 34.6256C39.1011 34.3798 39.0041 34.0704 38.9533 33.6976C38.9028 33.3246 38.873 33.0038 38.8643 32.7341C38.8565 32.4647 38.8602 32.0836 38.8774 31.5919C38.8949 31.1 38.9028 30.7672 38.9028 30.5927C38.9028 29.9899 38.9153 29.3356 38.9405 28.6298C38.966 27.924 38.9869 27.3648 39.0041 26.9528C39.0215 26.5404 39.0295 26.104 39.0295 25.644C39.0295 25.1841 38.9996 24.8233 38.9405 24.5615C38.8823 24.3 38.7927 24.0462 38.6747 23.8001C38.556 23.5542 38.3824 23.3641 38.1545 23.2291C37.9261 23.0943 37.6423 22.9873 37.3044 22.9078C36.4076 22.7175 35.2656 22.6146 33.8781 22.5986C30.7313 22.5669 28.7094 22.7574 27.8127 23.1698C27.4574 23.3441 27.1359 23.5822 26.8485 23.8833C26.5438 24.2324 26.5014 24.4229 26.7213 24.4542C27.7365 24.5968 28.4552 24.9379 28.8783 25.4771L29.0307 25.7629C29.1493 25.969 29.2676 26.334 29.3862 26.8574C29.5045 27.3807 29.5808 27.9596 29.6144 28.5937C29.6989 29.7518 29.6989 30.7431 29.6144 31.5678C29.5297 32.3928 29.4498 33.035 29.3735 33.495C29.297 33.955 29.183 34.3277 29.0307 34.6131C28.8783 34.8986 28.7768 35.0731 28.726 35.1364C28.6753 35.1998 28.6331 35.2397 28.5993 35.2554C28.3795 35.3344 28.1507 35.3746 27.914 35.3746C27.677 35.3746 27.3895 35.2634 27.0512 35.0413C26.713 34.8191 26.362 34.514 25.9982 34.1253C25.6343 33.7366 25.2241 33.1933 24.7671 32.4955C24.3105 31.7977 23.8367 30.9729 23.346 30.0213L22.9401 29.3311C22.6863 28.8872 22.3397 28.2407 21.8998 27.3923C21.4596 26.5435 21.0705 25.7225 20.7323 24.9295C20.5971 24.5964 20.394 24.3428 20.1233 24.1683L19.9963 24.0967C19.9119 24.0334 19.7763 23.9662 19.5904 23.8945C19.4042 23.8229 19.2098 23.7716 19.0066 23.74L12.0531 23.7873C11.3425 23.7873 10.8604 23.9382 10.6065 24.2397L10.5049 24.3822C10.4542 24.4617 10.4286 24.5885 10.4286 24.7631C10.4286 24.9376 10.4793 25.1517 10.5809 25.4053C11.596 27.6419 12.6999 29.799 13.8926 31.8768C15.0853 33.9546 16.1217 35.6283 17.0013 36.8964C17.881 38.1655 18.7777 39.3632 19.6913 40.4891C20.605 41.6152 21.2098 42.337 21.5057 42.654C21.802 42.9718 22.0347 43.2092 22.2038 43.3677L22.8384 43.9387C23.2445 44.3195 23.8407 44.7754 24.6274 45.3067C25.4144 45.8382 26.2855 46.3616 27.2414 46.8774C28.1975 47.3926 29.3097 47.8129 30.5788 48.1379C31.8477 48.4633 33.0826 48.594 34.2839 48.5309H37.2026C37.7944 48.4831 38.2428 48.3086 38.5477 48.0074L38.6487 47.8881C38.7164 47.7934 38.7801 47.6464 38.8388 47.4484C38.8981 47.2503 38.9276 47.0318 38.9276 46.7942C38.9102 46.1123 38.9657 45.4977 39.0922 44.9506C39.2187 44.4036 39.3628 43.9912 39.5241 43.7134C39.6853 43.436 39.8672 43.2017 40.0695 43.0119C40.2724 42.8218 40.417 42.7065 40.5018 42.6667C40.5859 42.6269 40.6532 42.5998 40.7039 42.5835C41.1101 42.4568 41.5879 42.5795 42.1384 42.9527C42.6883 43.3253 43.204 43.7855 43.6865 44.3325C44.1688 44.88 44.7481 45.4943 45.4248 46.1763C46.1018 46.8583 46.6938 47.3655 47.2011 47.699L47.7085 47.9846C48.0474 48.1751 48.4873 48.3496 49.0287 48.5081C49.5693 48.6666 50.0429 48.7063 50.4496 48.627L56.9461 48.5321C57.5887 48.5321 58.0886 48.4323 58.4433 48.2344C58.7986 48.0361 59.0097 47.8178 59.0779 47.5802C59.1457 47.3424 59.1493 47.0725 59.0907 46.7707C59.0306 46.4699 58.9713 46.2596 58.9122 46.1405Z" fill="black"/>
<circle cx="34.7619" cy="34.7619" r="33.7619" stroke="black" stroke-width="2"/>
</svg>
